<svg xmlns="http://www.w3.org/2000/svg" width="93.942" height="30.549"><path d="M1.909 0h90.124a1.909 1.909 0 011.909 1.909v9.547a1.909 1.909 0 01-1.909 1.909H1.909A1.909 1.909 0 010 11.456V1.909A1.909 1.909 0 011.909 0z" fill="#009844"/><path d="M5.03 9.791a2.285 2.285 0 00-.394-.216 2.553 2.553 0 00-.435-.155 6.787 6.787 0 00.535-.716q.289-.436.6-.97t.605-1.114q.3-.58.557-1.14-.439.038-.824.053t-.633 0l.074-.909a7.007 7.007 0 00.78.023q.475-.008.991-.053.168-.394.284-.727a6.086 6.086 0 00.175-.592l.925.129q-.069.22-.177.489t-.239.579q.32-.053.6-.117a4.921 4.921 0 00.486-.133l-.013.849q-.248.076-.637.155t-.839.14q-.273.6-.589 1.231t-.638 1.232q-.326.6-.63 1.1t-.565.86m5.194-.318a6.318 6.318 0 01-1.552.063 3.744 3.744 0 01-1.206-.3 1.524 1.524 0 01-.7-.568l.582-.682a1.514 1.514 0 00.668.443 3.517 3.517 0 001.094.2 6.544 6.544 0 001.434-.117 2.479 2.479 0 00-.2.477 2.96 2.96 0 00-.12.485m.246-2.682a4.15 4.15 0 00-.55-.148q-.314-.065-.668-.1t-.7-.049q-.343-.011-.626 0l.276-.889a6.118 6.118 0 01.64 0q.364.019.755.057t.741.095q.35.057.6.117zm.012-1.742a2.73 2.73 0 00-.219-.3 3.469 3.469 0 00-.277-.3 3.012 3.012 0 00-.266-.231l.432-.386a2.086 2.086 0 01.262.231q.155.155.3.318a3.016 3.016 0 01.224.277zm.729-.651a2.713 2.713 0 00-.363-.455 3.258 3.258 0 00-.416-.371l.431-.387a2.485 2.485 0 01.267.227q.159.151.308.314a2.732 2.732 0 01.228.277zm2.258 5.455l.381-2.16q-.335.311-.619.587t-.451.451l-.563-.575q.365-.265.834-.671t.986-.845l.18-1.038q-.347.076-.681.144t-.538.106l-.034-.841q.222-.015.616-.076t.778-.136l.263-1.493h.849l-.223 1.265.016-.008.4.341-.59.856q.413-.326.809-.591a5.393 5.393 0 01.742-.424 1.5 1.5 0 01.612-.159.728.728 0 01.7.322 1.476 1.476 0 01-.008 1.034q-.029.121-.1.36t-.147.534l-.156.587q-.078.292-.142.523t-.09.337q-.1.326.215.326a1.025 1.025 0 00.616-.227 2.764 2.764 0 00.552-.553 1.473 1.473 0 00.079.261 2.316 2.316 0 00.138.3 1.448 1.448 0 00.14.216 2.512 2.512 0 01-.526.493 2.707 2.707 0 01-.622.33 1.767 1.767 0 01-.608.117q-1.22 0-.9-1.228.037-.121.1-.368t.145-.546q.079-.3.163-.6t.148-.538q.065-.239.091-.345a.681.681 0 00.019-.364Q17 5.45 16.826 5.45a1.033 1.033 0 00-.457.186 7.691 7.691 0 00-.7.493q-.4.307-.823.671l-.53 3.052zm10.392.023a1.67 1.67 0 01-1.285-.468 1.528 1.528 0 01-.287-1.357q.019-.106.057-.258t.087-.341q-.474-.061-.88-.144a3.73 3.73 0 01-.646-.182l.292-.841a2.77 2.77 0 00.609.178q.4.08.85.14l.156-.538.158-.553q-.406-.061-.758-.129t-.539-.121l.3-.856a3.321 3.321 0 00.506.14q.336.072.727.133.147-.492.259-.887t.162-.584l.924.129q-.082.2-.21.587t-.273.86q.267.03.5.045a3.425 3.425 0 00.385.008l-.28.856q-.144 0-.368-.019t-.491-.049l-.152.538q-.074.265-.143.53.3.015.561.019t.453-.011l-.256.849q-.206.008-.451 0t-.516-.019q-.03.129-.055.246a6.644 6.644 0 00-.043.224.909.909 0 00.108.72.857.857 0 00.7.235 1.437 1.437 0 00.84-.231 1 1 0 00.411-.678 1.551 1.551 0 00-.092-.811 1.594 1.594 0 00-.589-.743 2.39 2.39 0 00.853-.326 2.265 2.265 0 01.65.909 1.89 1.89 0 01.1 1.008 2.017 2.017 0 01-.43.955 2.2 2.2 0 01-.825.618 2.67 2.67 0 01-1.084.216m4.775-.233a1.2 1.2 0 00-.183-.167 2.841 2.841 0 00-.264-.182 1.076 1.076 0 00-.238-.114 6.517 6.517 0 00.76-.83q.382-.489.748-1.065t.678-1.182q-.394.045-.765.106t-.616.121q.01-.1.009-.265t-.01-.33a1.044 1.044 0 00-.034-.239l.462-.042.632-.061q.347-.034.692-.057.22-.477.389-.936a8.75 8.75 0 00.268-.852l.866.159q-.1.349-.253.746t-.348.815l.275-.011h.213a1.335 1.335 0 01.525.095.6.6 0 01.324.333 1.309 1.309 0 01.051.659 5.137 5.137 0 01-.288 1.072 7.7 7.7 0 01-.571 1.281 1.793 1.793 0 01-.6.652 1.488 1.488 0 01-.768.189 1.609 1.609 0 01-.766-.167q.039-.182.077-.439a2.258 2.258 0 00.029-.424 1.639 1.639 0 00.713.167.579.579 0 00.332-.1 1.246 1.246 0 00.326-.409 6.756 6.756 0 00.4-.906 3.511 3.511 0 00.236-.822q.025-.269-.082-.352a.457.457 0 00-.289-.083q-.212 0-.512.023-.359.7-.779 1.387t-.844 1.262a9.442 9.442 0 01-.8.974m5.871-1.97a4.288 4.288 0 00-.248-.485q-.163-.28-.363-.565t-.384-.524a2.353 2.353 0 00-.346-.36l.766-.561a3.8 3.8 0 01.36.368q.2.231.411.5t.382.538a3.357 3.357 0 01.26.462zm.248-2.394a2.676 2.676 0 00-.428-.386 3.385 3.385 0 00-.473-.3l.393-.424a2.693 2.693 0 01.3.186q.179.125.352.258a2.542 2.542 0 01.27.231zm.644-.727a2.878 2.878 0 00-.436-.383 3 3 0 00-.475-.292l.394-.432a3.079 3.079 0 01.3.182q.179.121.357.254a2.453 2.453 0 01.274.231zm.79 5.495a2.257 2.257 0 00-.039-.443 1.647 1.647 0 00-.127-.421 6.871 6.871 0 002.765-.682q-.45-.2-.877-.352a8.084 8.084 0 00-.79-.246q.162-.189.377-.462t.454-.6h-1.72l.14-.8h2.145q.262-.371.482-.712t.353-.584l.891.273q-.138.22-.309.485t-.364.538h3.683l-.14.8h-1.574a6.335 6.335 0 01-1 1.417q.481.235.941.485t.833.5a2.8 2.8 0 00-.376.368 4.493 4.493 0 00-.342.436q-.39-.28-.874-.565t-1-.542a5.773 5.773 0 01-1.554.712 12.256 12.256 0 01-1.975.394m.492-4.463l.294-1.667h2.667l.152-.863h1.023l-.152.864h2.7l-.292 1.659h-.924l.155-.879h-4.528l-.156.886zm3.013 2.3a3.937 3.937 0 00.819-1.038h-1.5l-.259.349q-.119.159-.206.265.252.076.543.186t.6.239m4.727.574a3.064 3.064 0 00-.353-.235 2.343 2.343 0 00-.391-.189 5.929 5.929 0 00.429-.5q.234-.3.457-.637t.408-.659a5.446 5.446 0 00.289-.565l.824.311a6.366 6.366 0 01-.32.614q-.2.334-.423.678t-.467.652a6.6 6.6 0 01-.453.527m2.351 1.364a1.045 1.045 0 01-.656-.148.5.5 0 01-.109-.5l.712-4.039h.94l-.631 3.577a.183.183 0 00.03.17.351.351 0 00.226.049h.962a.548.548 0 00.463-.2 2.216 2.216 0 00.293-.735q.1.053.244.117t.309.117q.161.053.285.083a4.738 4.738 0 01-.394.943 1.059 1.059 0 01-.449.439 1.56 1.56 0 01-.65.117zm1.976-4.819a4.8 4.8 0 00-.517-.443q-.3-.223-.6-.421a4.911 4.911 0 00-.565-.318l.582-.72a5.911 5.911 0 01.619.337q.338.209.648.428a4.326 4.326 0 01.5.4q-.1.091-.234.231t-.249.277a2.854 2.854 0 00-.177.227m1.523 3.008a5.518 5.518 0 00-1.265-2.048l.758-.561a4.579 4.579 0 01.525.591 7.63 7.63 0 01.5.743 5.5 5.5 0 01.359.712 2.017 2.017 0 00-.293.155q-.178.11-.342.224t-.244.182m4.568 1.672a3.057 3.057 0 01-.96-.121.734.734 0 01-.473-.409 1.422 1.422 0 01-.033-.78l.883-5.009.982.061q-.038.129-.106.432t-.142.65q-.057.28-.119.614t-.134.735l-.411 2.334q-.059.333.105.455a1.131 1.131 0 00.626.121 3.94 3.94 0 001.455-.28 5.432 5.432 0 001.271-.7q-.018.144-.027.345t-.006.379c0 .119 0 .211.008.277a5.987 5.987 0 01-1.383.644 4.949 4.949 0 01-1.541.25m9.974.063a2.9 2.9 0 01-1.314-.458 2.059 2.059 0 01-.777-.962 2.457 2.457 0 01-.1-1.353 3.024 3.024 0 01.461-1.11 3.861 3.861 0 01.958-1q-.624.1-1.242.208t-1.124.208q-.506.1-.785.174l-.031-.985q.253-.015.705-.068t1.024-.133q.571-.08 1.182-.174t1.186-.193q.574-.1 1.034-.193t.723-.17l.079.924q-.115.008-.29.034t-.4.057a2.669 2.669 0 00-.837.258 3.332 3.332 0 00-.775.527 3.185 3.185 0 00-.6.739 2.651 2.651 0 00-.333.9 1.38 1.38 0 00.126.962 1.508 1.508 0 00.7.6 3.712 3.712 0 001.1.292 2.415 2.415 0 00-.271.292 3.527 3.527 0 00-.242.341 1.7 1.7 0 00-.148.284m3.301.272l.7-3.955q-.118.152-.229.288t-.213.242a1.974 1.974 0 00-.125-.2q-.085-.121-.181-.242a.927.927 0 00-.17-.174 5.443 5.443 0 00.541-.64q.274-.375.522-.792t.441-.8a6.393 6.393 0 00.3-.674l.771.182q-.1.25-.251.542t-.33.6l-.991 5.622zm3.8.121q-.11-.106-.273-.235a.991.991 0 00-.306-.174q.113-.084.219-.17c.071-.058.137-.117.2-.178q-.373.053-.841.106t-.9.091q-.435.038-.734.061l.013-.674q.184-.015.514-.038t.706-.053l.064-.364h-1.046l.108-.614h1.046l.052-.3h-1.106l.406-2.3h1.106l.051-.288h-1.167l.107-.606h1.167l.055-.311q-.263.03-.505.049l-.442.034a2.618 2.618 0 000-.337 1.838 1.838 0 00-.045-.322q.245-.015.6-.049t.754-.087q.4-.053.733-.117a3.831 3.831 0 00.523-.134l.25.644a8.021 8.021 0 01-1.169.227l-.071.4h1.144l-.092.523h.379l.315-1.788h.743l-.315 1.794h1.046l-.218 1.239q-.167.947-.321 1.648t-.279 1.113a2.069 2.069 0 01-.3.674.79.79 0 01-.418.288 2.332 2.332 0 01-.611.068h-.318a2.366 2.366 0 00.011-.341 2.216 2.216 0 00-.033-.349 6.7 6.7 0 01-.8.871m-1.491-3.061h.4l.065-.371h-.4zm.156-.887h.4l.066-.371h-.4zm.629 2.622l.6-.057q.281-.026.452-.049l-.019.106a4.528 4.528 0 00.583-1.156 10.469 10.469 0 00.4-1.6l.068-.386h-.432l-.341 1.932h-1.091l-.052.3h.992l-.108.614h-.993zm.306-1.735h.394l.065-.371h-.394zm.156-.887h.394l.065-.371h-.394zm.158-.894h1.046l.051-.288h-1.046zm.932 3.91h.356a.583.583 0 00.372-.091 1.01 1.01 0 00.217-.417q.1-.288.244-.913t.323-1.618l.088-.5h-.333l-.068.386a10.209 10.209 0 01-.46 1.773 5.59 5.59 0 01-.74 1.379m3.78-.405q0-.265.034-.663t.094-.875q.061-.477.143-.985t.17-.985q.088-.477.18-.871t.176-.652l.9.121a6.156 6.156 0 00-.225.762q-.114.474-.217 1.034T77.612 6.8q-.079.557-.12 1.023a5.116 5.116 0 00-.022.746zm2.168 1.114a4.058 4.058 0 00-.231-.39 1.277 1.277 0 00-.3-.322 4.168 4.168 0 001.055-.614 2.794 2.794 0 00.71-.89 4.584 4.584 0 00.412-1.307l.1-.583q-.507.038-.947.064t-.66.027l.039-.909q.27.015.738 0t.981-.042l.277-1.548h.894l-.26 1.478q.385-.038.709-.091t.522-.106l-.165.919q-.18.03-.5.068t-.718.076l-.115.652a5.21 5.21 0 01-.83 2.148 4.4 4.4 0 01-1.709 1.375m8.38-.23a1.873 1.873 0 01-1.281-.345.879.879 0 01-.283-.845 1.115 1.115 0 01.257-.553 1.378 1.378 0 01.479-.352 1.394 1.394 0 01.575-.125 1.024 1.024 0 01.844.349 1.36 1.36 0 01.291.864 1.41 1.41 0 00.528-.394 1.319 1.319 0 00.29-.637.983.983 0 00-.051-.568.842.842 0 00-.358-.4 1.19 1.19 0 00-.614-.148 3.1 3.1 0 00-.9.121 2.387 2.387 0 00-.746.387q-.158.121-.415.311t-.481.341l-.5-.667a7.992 7.992 0 00.816-.5q.44-.3.9-.674t.886-.769q.426-.4.775-.784-.34.076-.734.144t-.755.113q-.361.045-.606.061l-.014-.864a3.9 3.9 0 00.512 0q.31-.019.672-.053t.709-.087q.347-.053.626-.11a2.253 2.253 0 00.418-.117l.6.455a7.881 7.881 0 01-.9 1.065q-.549.557-1.155 1.072a1.646 1.646 0 01.621-.129 2 2 0 011 .227 1.312 1.312 0 01.574.633 1.631 1.631 0 01.08.943 2.277 2.277 0 01-.466 1.031 2.62 2.62 0 01-.929.735 2.853 2.853 0 01-1.26.273m.048-.834a.794.794 0 00-.1-.462.37.37 0 00-.337-.174.39.39 0 00-.215.061.259.259 0 00-.115.182.254.254 0 00.124.265 1.094 1.094 0 00.551.121.132.132 0 00.044.008z" fill="#fff"/><path d="M5.337 17.184h83.25a1.909 1.909 0 011.909 1.909v9.547a1.909 1.909 0 01-1.909 1.909H5.337a1.909 1.909 0 01-1.909-1.909v-9.547a1.909 1.909 0 011.909-1.909z" fill="#009844"/><path d="M11.629 27.392a2.046 2.046 0 00-.159-.3 1.15 1.15 0 00-.207-.262q.117-.061.227-.125t.22-.133h-1.569l.434-2.463h2.13l-.357 2.021q.176-.136.346-.284t.325-.3a7.53 7.53 0 010-.815q.02-.436.072-.943h-2.74l.121-.69h.546q-.02-.189-.063-.458t-.093-.458l.668-.22a3.721 3.721 0 01.1.485q.046.3.062.508l-.5.144h.607q.1-.159.218-.379t.228-.432q.105-.212.157-.333h-1.614l.088-.5h-.247l-1.033 5.891h-.682l.256-1.455-.486.155q-.269.084-.532.164t-.461.12l-.062-.764q.086-.015.208-.041l.249-.057.707-4.009h-.357l.127-.72h2.554l-.095.538h.667l.14-.8h.8l-.14.8h.788l-.12.682h-.728l.626.19q-.093.182-.243.454t-.3.5h.652q.072-.583.181-1.239t.242-1.413h.765q-.054.265-.108.549t-.1.572l.623-.311a4.168 4.168 0 01.237.546 5.182 5.182 0 01.176.591 2.354 2.354 0 00-.344.144q-.207.106-.35.188-.051-.227-.147-.519a4.7 4.7 0 00-.21-.525q-.061.348-.113.7t-.1.712h1.187l-.122.69h-1.137q-.026.235-.038.451t-.019.428q.12-.167.229-.33a2.98 2.98 0 00.191-.33l.622.323a7.818 7.818 0 01-.469.682q-.256.334-.538.644.028.182.059.333a1.5 1.5 0 00.083.28 3.288 3.288 0 00.163-.364q.071-.189.132-.364a1.8 1.8 0 00.2.11q.119.057.236.1a1.738 1.738 0 00.175.061q-.071.19-.18.421t-.226.443a3.427 3.427 0 01-.227.364.553.553 0 01-.468.29.469.469 0 01-.4-.3q-.07-.159-.135-.33a2.619 2.619 0 01-.107-.36 7.438 7.438 0 01-1.498 1.052m-2.833-2.084q.136-.038.262-.068t.238-.061l.12-.682h-.477zm.27-1.53h.477l.143-.811h-.477zm.271-1.538h.477l.138-.78h-.478zm1.65 3.75h.642l.071-.4h-.643zm.16-.909h.644l.068-.386h-.644zm7.961 2.296a1.364 1.364 0 00-.149-.144q-.106-.091-.219-.174a.884.884 0 00-.192-.114 3.9 3.9 0 00.812-.5 7.063 7.063 0 00.78-.709 4.57 4.57 0 00.575-.724h-.326a6.4 6.4 0 01-.738.815 7.185 7.185 0 01-.917.731 5.091 5.091 0 01-.966.515 1.17 1.17 0 00-.113-.174q-.08-.106-.168-.2a.662.662 0 00-.158-.136 4.839 4.839 0 00.778-.375 6.976 6.976 0 00.814-.557 4.624 4.624 0 00.65-.614h-.356a7.159 7.159 0 01-.723.6 4.875 4.875 0 01-.742.447 1.36 1.36 0 00-.203-.271 1.571 1.571 0 00-.265-.235 4.729 4.729 0 00.71-.394 5.986 5.986 0 00.689-.534 4.167 4.167 0 00.542-.58h-.712l-.135.766q-.2.1-.53.231t-.7.269q-.373.136-.726.25t-.608.182l-.069-.856q.2-.038.453-.1t.521-.137l.33-1.893h-.841l.138-.781h.841l.26-1.477h.879l-.26 1.477h.78l-.138.781h-.78l-.282 1.6.445-.159a3.857 3.857 0 00.368-.152h-.121l.111-.648h4.546l-.113.644h-2.833c-.034.051-.071.1-.112.159s-.083.111-.128.167h2.84q-.039.22-.109.531t-.163.648q-.093.337-.2.637a3.022 3.022 0 01-.213.5 1.191 1.191 0 01-.445.5 1.357 1.357 0 01-.661.14h-.53a2.812 2.812 0 000-.409 1.4 1.4 0 00-.063-.371 6.633 6.633 0 01-.576.474 3.624 3.624 0 01-.585.352m-.022-4.259l.448-2.538h3.288l-.447 2.538zm.942-.614h1.625l.064-.364h-1.619zm.162-.917h1.622l.063-.356h-1.617zm.1 4.941h.53a.623.623 0 00.274-.049.487.487 0 00.19-.216 2.606 2.606 0 00.169-.358q.09-.231.164-.477t.111-.413h-.227a5.977 5.977 0 01-.536.781 7.6 7.6 0 01-.671.735m6.091-.12a1.558 1.558 0 00-.054-.32 2.482 2.482 0 00-.123-.356 1.405 1.405 0 00-.155-.28 9.867 9.867 0 001.773-.277 3.463 3.463 0 001.205-.542 1.235 1.235 0 00.516-.841q.143-1.068-1.4-1a5.662 5.662 0 00-.586.057q-.35.049-.761.125t-.827.178q-.416.1-.788.212t-.633.216s-.01-.057-.033-.155l-.08-.341-.08-.341a1.336 1.336 0 00-.041-.155q.243-.045.628-.125t.845-.17q.459-.091.92-.17t.869-.136a6.4 6.4 0 01.69-.064 3.256 3.256 0 011.4.186 1.377 1.377 0 01.734.648 1.7 1.7 0 01.131 1 2.243 2.243 0 01-.427 1.065 2.9 2.9 0 01-.893.765 5.607 5.607 0 01-1.269.515 10.8 10.8 0 01-1.562.307m3.994-4.3a2.636 2.636 0 00-.32-.485 3.57 3.57 0 00-.377-.416l.463-.349a3.438 3.438 0 01.239.249q.142.163.274.337a2.909 2.909 0 01.2.3zm.765-.6a2.855 2.855 0 00-.328-.481 3.708 3.708 0 00-.379-.405l.456-.355a1.921 1.921 0 01.248.246q.142.163.278.333a2.424 2.424 0 01.206.292zm4.396 5.837a4.722 4.722 0 00-.256-.633q-.169-.352-.379-.727t-.436-.731q-.226-.356-.429-.64a5.048 5.048 0 00-.356-.451.563.563 0 01-.18-.443.722.722 0 01.322-.405q.219-.167.522-.424t.638-.568q.334-.311.661-.636t.6-.633a5.248 5.248 0 00.435-.557l.761.583q-.207.227-.557.561t-.744.694q-.393.36-.761.682t-.625.534a.24.24 0 00-.05.371q.137.167.335.443t.415.614q.217.337.43.678t.38.64q.167.3.261.5a2.721 2.721 0 00-.321.144q-.192.1-.374.208a2.255 2.255 0 00-.289.2m6.636-.05a1.91 1.91 0 00-.233-.4 1.872 1.872 0 00-.318-.345 4.339 4.339 0 001.819-1.228 4.067 4.067 0 00.917-2 1.389 1.389 0 00-.077-1 .6.6 0 00-.564-.261.909.909 0 00-.578.314 2.406 2.406 0 00-.5.86 4.418 4.418 0 00-.241 1.374q-.107.008-.283.038c-.117.02-.23.043-.338.068a2.163 2.163 0 00-.243.068 6.619 6.619 0 01.037-.7q.041-.424.109-.917t.151-.985q.083-.492.172-.909t.164-.674l.91.083q-.07.182-.154.466t-.163.6q-.079.318-.139.614a2.616 2.616 0 01.644-.792 1.279 1.279 0 011.575-.1 1.226 1.226 0 01.453.7 2.669 2.669 0 01.007 1.163 5.024 5.024 0 01-1.067 2.421 6.016 6.016 0 01-2.058 1.55m9.105-.129a4.506 4.506 0 01-1.1-.121 1.4 1.4 0 01-.719-.39.8.8 0 01-.163-.708 1.311 1.311 0 01.336-.663 2.869 2.869 0 01.7-.546 7.016 7.016 0 01.959-.451l.011-.059a.455.455 0 00-.064-.39.443.443 0 00-.313-.14 1.687 1.687 0 00-.684.1 2.267 2.267 0 00-.706.439l-.276.231-.337.277q-.168.136-.29.227l-.544-.652a6.505 6.505 0 001.155-.879 7.868 7.868 0 00.995-1.129l-.778.027q-.35.011-.523 0l.123-.872q.253.023.712.023t1-.023a3.909 3.909 0 00.363-.94l.894.045a4.145 4.145 0 01-.3.834q.569-.045 1.06-.1a5.214 5.214 0 00.762-.133l-.1.841q-.219.038-.567.08t-.768.08q-.42.038-.857.068-.136.212-.3.428t-.334.413a1.811 1.811 0 01.635-.121 1.036 1.036 0 01.712.235.939.939 0 01.246.773q.45-.144.914-.262t.9-.216l.111.834q-.544.076-1.063.185t-.975.246l-.178 1.008h-.894l.118-.667a3.543 3.543 0 00-.673.375.656.656 0 00-.292.367q-.045.258.247.36a3.058 3.058 0 00.929.1 5.733 5.733 0 00.586-.034q.328-.034.66-.091t.587-.125q-.033.1-.077.284t-.076.368q-.032.182-.041.273a6.938 6.938 0 01-.858.14 8.441 8.441 0 01-.872.049m7.767-.263a1.91 1.91 0 00-.33-.834 3.286 3.286 0 001.74-.523 1.875 1.875 0 00.792-1.25 1.12 1.12 0 00-.141-.833 1.253 1.253 0 00-.7-.5 12.482 12.482 0 01-1.217 1.614 2.417 2.417 0 00.391.273 1.963 1.963 0 00-.36.322 3.465 3.465 0 00-.3.375q-.1-.061-.2-.133t-.2-.155a5.142 5.142 0 01-1.08.8 1.7 1.7 0 01-.834.239.627.627 0 01-.541-.28 1.109 1.109 0 01-.083-.8 2.956 2.956 0 01.433-1.08 4.377 4.377 0 01.81-.943 8.6 8.6 0 01-.256-.845 7.581 7.581 0 01-.153-.784l.852-.318a3.346 3.346 0 00.069.682 5.05 5.05 0 00.21.743 4.328 4.328 0 01.925-.413 3.185 3.185 0 01.947-.148h.167q.191-.356.35-.716a5.707 5.707 0 00.253-.686l.869.228q-.126.326-.279.655t-.34.663a2.074 2.074 0 01.831.466 1.684 1.684 0 01.45.712 1.794 1.794 0 01.048.867 2.93 2.93 0 01-.52 1.232 3.133 3.133 0 01-1.054.906 4.359 4.359 0 01-1.545.47m-1.878-1.553a3.545 3.545 0 00.855-.637 4.355 4.355 0 01-.263-.4q-.122-.208-.236-.421a2.993 2.993 0 00-.477.621 2.094 2.094 0 00-.253.682q-.064.364.375.152m1.5-1.326a13.476 13.476 0 00.855-1.152 2.475 2.475 0 00-.654.14 3.1 3.1 0 00-.639.314 5.723 5.723 0 00.438.7m9.097 3.116a6.971 6.971 0 01-1.227-.045 3.16 3.16 0 01-1-.288 1.442 1.442 0 01-.631-.572 1.3 1.3 0 01-.112-.89 1.459 1.459 0 01.494-.868 2.418 2.418 0 011-.508 3.416 3.416 0 011.282-.072 5.813 5.813 0 01-.259-.549 4.24 4.24 0 01-.192-.587q-.708.061-1.4.095t-1.2.027l.043-.887a10.644 10.644 0 001.079.027q.639-.011 1.33-.064a4.677 4.677 0 01.04-1.341h.9a4.862 4.862 0 00-.069.629 4.539 4.539 0 00.014.629q.6-.061 1.121-.148a6.729 6.729 0 00.84-.186l-.025.871q-.323.068-.785.133t-1 .125a3.892 3.892 0 00.421.921 3.392 3.392 0 00.666.777l-.655.621a2.346 2.346 0 00-.642-.288 2.69 2.69 0 00-.7-.1 2.342 2.342 0 00-.651.08 1.321 1.321 0 00-.5.25.683.683 0 00-.244.417.515.515 0 00.267.572 2.318 2.318 0 00.946.265 8.461 8.461 0 001.38.019 3.125 3.125 0 00-.2.284q-.115.178-.207.356a1.829 1.829 0 00-.129.3m2.5-5.122a2.547 2.547 0 00-.265-.519 3.4 3.4 0 00-.331-.443l.487-.311a2.755 2.755 0 01.212.28q.123.182.238.368a2.268 2.268 0 01.168.314zm.806-.53a2.78 2.78 0 00-.265-.521 3.581 3.581 0 00-.332-.439l.486-.311a2.947 2.947 0 01.213.277q.124.178.24.36a2.914 2.914 0 01.176.311zm3.308 5.504a3.059 3.059 0 01-.96-.121.734.734 0 01-.473-.409 1.425 1.425 0 01-.033-.78l.883-5.009.982.061q-.038.129-.106.432t-.138.652q-.057.28-.12.614t-.134.735l-.411 2.334q-.059.333.106.454a1.129 1.129 0 00.626.121 3.944 3.944 0 001.455-.28 5.439 5.439 0 001.271-.7q-.018.144-.027.345t-.006.379q0 .178.008.277a5.99 5.99 0 01-1.383.644 4.949 4.949 0 01-1.541.25m9.972.061a2.909 2.909 0 01-1.314-.458 2.061 2.061 0 01-.777-.963 2.457 2.457 0 01-.1-1.353 3.02 3.02 0 01.461-1.11 3.861 3.861 0 01.958-1q-.624.1-1.242.208t-1.124.208q-.507.1-.785.174l-.031-.985q.253-.015.705-.068t1.024-.132q.571-.08 1.182-.174t1.186-.193q.574-.1 1.034-.193t.723-.17l.08.924c-.077.005-.174.016-.29.034s-.25.037-.4.057a2.668 2.668 0 00-.837.258 3.328 3.328 0 00-.775.527 3.18 3.18 0 00-.6.739 2.656 2.656 0 00-.333.9 1.38 1.38 0 00.126.962 1.509 1.509 0 00.7.6 3.708 3.708 0 001.1.292 2.427 2.427 0 00-.271.292 3.5 3.5 0 00-.242.341 1.7 1.7 0 00-.149.284" fill="#fff"/></svg>