<svg xmlns="http://www.w3.org/2000/svg" width="50" height="50"><g fill="#fff"><path d="M49 25a23.921 23.921 0 01-7.03 16.97A23.921 23.921 0 0125 49a23.921 23.921 0 01-16.97-7.03A23.921 23.921 0 011 25 23.921 23.921 0 018.03 8.03 23.921 23.921 0 0125 1a23.921 23.921 0 0116.97 7.03A23.921 23.921 0 0149 25z"/><path d="M2 25a22.926 22.926 0 006.737 16.263A22.926 22.926 0 0025 48a22.926 22.926 0 0016.263-6.737A22.926 22.926 0 0048 25a22.926 22.926 0 00-6.737-16.263A22.926 22.926 0 0025 2 22.926 22.926 0 008.737 8.737 22.926 22.926 0 002 25m-2 0C0 11.193 11.193 0 25 0s25 11.193 25 25-11.193 25-25 25S0 38.807 0 25z" fill="#00561f"/></g><path d="M18 28.499l7-7 7 7" fill="none" stroke="#00561f" stroke-width="2"/></svg>