<svg xmlns="http://www.w3.org/2000/svg" width="466.6" height="151.74" viewBox="0 0 466.6 151.74"><g transform="translate(-481 -424.4)"><g transform="translate(481 424.4)"><path d="M9.484,0H457.116A9.484,9.484,0,0,1,466.6,9.484V56.9a9.484,9.484,0,0,1-9.484,9.484H9.484A9.484,9.484,0,0,1,0,56.9V9.484A9.484,9.484,0,0,1,9.484,0Z" fill="#00561f"/><g transform="translate(20.864 15.174)"><path d="M4.116,33.5a11.35,11.35,0,0,0-1.957-1.072A12.682,12.682,0,0,0,0,31.655,33.713,33.713,0,0,0,2.659,28.1q1.435-2.164,2.957-4.817t3.007-5.533q1.488-2.879,2.768-5.664-2.179.189-4.092.263t-3.143,0l.382-4.516a34.8,34.8,0,0,0,3.876.113q2.358-.038,4.92-.263.834-1.956,1.409-3.613a30.229,30.229,0,0,0,.874-2.936l4.592.64q-.343,1.092-.88,2.428T18.146,7.077q1.589-.263,3-.582a24.443,24.443,0,0,0,2.413-.659l-.066,4.215q-1.234.377-3.165.771t-4.169.7q-1.354,2.974-2.923,6.116T10.05,23.751q-1.617,2.974-3.13,5.475T4.116,33.5m25.8-1.58a31.379,31.379,0,0,1-7.712.3,18.6,18.6,0,0,1-5.99-1.468,7.568,7.568,0,0,1-3.472-2.823l2.892-3.387a7.52,7.52,0,0,0,3.32,2.2,17.469,17.469,0,0,0,5.435.979,32.5,32.5,0,0,0,7.123-.583,12.311,12.311,0,0,0-1,2.371,14.7,14.7,0,0,0-.594,2.409M31.132,18.6a20.614,20.614,0,0,0-2.731-.734q-1.561-.32-3.317-.508t-3.457-.245q-1.7-.056-3.108.019l1.341-4.4a30.39,30.39,0,0,1,3.177.019q1.809.095,3.752.282t3.68.47q1.739.281,2.965.583Zm.058-8.657a13.558,13.558,0,0,0-1.09-1.5,17.231,17.231,0,0,0-1.376-1.487A14.959,14.959,0,0,0,27.4,5.8l2.146-1.919a10.362,10.362,0,0,1,1.3,1.148q.768.772,1.49,1.581a14.982,14.982,0,0,1,1.113,1.374ZM34.809,6.7a13.475,13.475,0,0,0-1.8-2.258A16.183,16.183,0,0,0,30.941,2.6L33.086.68a12.345,12.345,0,0,1,1.325,1.129q.789.752,1.532,1.562a13.569,13.569,0,0,1,1.131,1.374Z" transform="translate(0 -0.04)" fill="#fff"/><path d="M48.526,33.838l1.891-10.726q-1.664,1.544-3.073,2.917T45.1,28.268L42.3,25.407q1.812-1.317,4.143-3.331t4.9-4.2l.909-5.156q-1.723.377-3.382.715t-2.67.527l-.167-4.178q1.1-.075,3.058-.376t3.864-.677L54.26,1.32h4.215L57.367,7.605l.082-.038,2,1.694-2.932,4.253q2.054-1.617,4.018-2.936a26.788,26.788,0,0,1,3.684-2.108,7.441,7.441,0,0,1,3.037-.79q2.6,0,3.481,1.6t-.04,5.137q-.144.6-.485,1.788t-.732,2.653q-.391,1.468-.777,2.917t-.7,2.6q-.315,1.147-.445,1.675-.474,1.619,1.069,1.618a5.092,5.092,0,0,0,3.059-1.129,13.726,13.726,0,0,0,2.744-2.747,7.316,7.316,0,0,0,.391,1.3,11.5,11.5,0,0,0,.683,1.468,7.191,7.191,0,0,0,.694,1.073,12.477,12.477,0,0,1-2.615,2.446,13.446,13.446,0,0,1-3.092,1.637,8.779,8.779,0,0,1-3.019.583q-6.06,0-4.458-6.1.182-.6.51-1.825t.723-2.71q.394-1.486.807-2.973t.734-2.672q.322-1.186.453-1.712a3.381,3.381,0,0,0,.092-1.807q-.207-.526-1.074-.527a5.132,5.132,0,0,0-2.27.922A38.2,38.2,0,0,0,59.5,15.34q-1.963,1.524-4.087,3.331L52.741,33.838Z" transform="translate(-2.499 -0.078)" fill="#fff"/><path d="M102.855,33.92q-4.216,0-6.383-2.333T95.046,24.85q.093-.526.281-1.28t.43-1.693q-2.356-.3-4.371-.716a18.523,18.523,0,0,1-3.209-.9l1.452-4.178a13.757,13.757,0,0,0,3.024.884q1.982.4,4.224.7.382-1.315.772-2.672t.786-2.747q-2.017-.3-3.765-.639T91.992,11l1.5-4.253a16.5,16.5,0,0,0,2.511.7q1.667.358,3.61.659.733-2.446,1.284-4.4t.793-2.9l4.592.64q-.405,1.016-1.041,2.918t-1.356,4.271q1.328.151,2.481.226a17.01,17.01,0,0,0,1.913.038l-1.39,4.253q-.714,0-1.827-.094t-2.441-.245q-.39,1.356-.753,2.672t-.709,2.635q1.49.076,2.788.094t2.249-.056l-1.271,4.215q-1.022.038-2.242.019t-2.561-.093q-.151.639-.272,1.222c-.082.39-.152.759-.215,1.11a4.515,4.515,0,0,0,.535,3.575q.924,1.167,3.484,1.167a7.139,7.139,0,0,0,4.172-1.148,4.946,4.946,0,0,0,2.043-3.368,7.7,7.7,0,0,0-.456-4.026,7.919,7.919,0,0,0-2.925-3.688,9.971,9.971,0,0,0,2.336-.66,9.9,9.9,0,0,0,1.9-.96,11.252,11.252,0,0,1,3.23,4.516,9.385,9.385,0,0,1,.51,5.006,10.016,10.016,0,0,1-2.134,4.742,10.928,10.928,0,0,1-4.1,3.067,13.26,13.26,0,0,1-5.382,1.073" transform="translate(-5.21 -0.047)" fill="#fff"/><path d="M128.742,32.827a5.958,5.958,0,0,0-.908-.828,14.115,14.115,0,0,0-1.309-.9,5.347,5.347,0,0,0-1.18-.565,32.371,32.371,0,0,0,3.775-4.121q1.9-2.428,3.718-5.288t3.368-5.871q-1.959.226-3.8.527t-3.06.6q.048-.488.043-1.317t-.049-1.637a5.185,5.185,0,0,0-.168-1.186q.878-.075,2.295-.207t3.139-.3q1.723-.169,3.437-.282,1.1-2.371,1.93-4.648A43.454,43.454,0,0,0,141.3,2.567l4.3.79q-.494,1.732-1.255,3.707t-1.73,4.046c.506-.025.961-.043,1.365-.056s.756-.019,1.057-.019a6.63,6.63,0,0,1,2.609.47,2.993,2.993,0,0,1,1.607,1.656,6.5,6.5,0,0,1,.252,3.274,25.519,25.519,0,0,1-1.429,5.326,38.251,38.251,0,0,1-2.834,6.361,8.906,8.906,0,0,1-2.961,3.237,7.39,7.39,0,0,1-3.816.941,7.991,7.991,0,0,1-3.805-.828q.195-.9.385-2.183a11.216,11.216,0,0,0,.146-2.108,8.141,8.141,0,0,0,3.543.828,2.878,2.878,0,0,0,1.651-.508,6.191,6.191,0,0,0,1.618-2.032,33.551,33.551,0,0,0,2-4.5,17.437,17.437,0,0,0,1.171-4.084q.123-1.335-.406-1.75a2.269,2.269,0,0,0-1.433-.414q-1.054,0-2.541.113-1.784,3.5-3.868,6.887t-4.191,6.266a46.894,46.894,0,0,1-4,4.836M157.9,23.041a21.3,21.3,0,0,0-1.231-2.409q-.809-1.392-1.8-2.8t-1.951-2.6a11.686,11.686,0,0,0-1.717-1.788l3.8-2.785a18.884,18.884,0,0,1,1.786,1.825q1,1.149,2.043,2.5t1.9,2.672a16.668,16.668,0,0,1,1.289,2.3Zm1.232-11.893a13.292,13.292,0,0,0-2.127-1.919,16.813,16.813,0,0,0-2.349-1.505l1.952-2.108a13.375,13.375,0,0,1,1.474.922q.888.621,1.75,1.28a12.625,12.625,0,0,1,1.341,1.148Zm3.2-3.613a14.294,14.294,0,0,0-2.168-1.9A14.873,14.873,0,0,0,157.8,4.185l1.959-2.145a15.282,15.282,0,0,1,1.478.9q.891.6,1.773,1.261a12.183,12.183,0,0,1,1.359,1.148Z" transform="translate(-7.406 -0.121)" fill="#fff"/><path d="M168.761,34.739a11.214,11.214,0,0,0-.195-2.2,8.184,8.184,0,0,0-.629-2.089,34.129,34.129,0,0,0,13.733-3.387q-2.236-.978-4.358-1.75a40.159,40.159,0,0,0-3.925-1.223q.806-.94,1.873-2.3t2.255-2.973h-8.544l.7-3.952H180.32q1.3-1.843,2.393-3.538t1.753-2.9l4.428,1.356q-.683,1.092-1.536,2.409t-1.807,2.672h18.292l-.7,3.952h-7.828a31.466,31.466,0,0,1-4.967,7.038q2.391,1.167,4.675,2.409t4.135,2.484a13.887,13.887,0,0,0-1.866,1.825,22.314,22.314,0,0,0-1.7,2.164q-1.936-1.393-4.342-2.8t-4.962-2.691a28.677,28.677,0,0,1-7.718,3.538,60.879,60.879,0,0,1-9.812,1.957M171.2,12.57l1.459-8.279h13.249L186.668,0h5.08l-.757,4.291h13.4l-1.453,8.242h-4.592l.77-4.366H176.646l-.776,4.4Zm14.963,11.4a19.553,19.553,0,0,0,4.07-5.156h-7.452q-.693.941-1.284,1.731t-1.023,1.317q1.252.377,2.7.922t2.99,1.186" transform="translate(-9.923)" fill="#fff"/><path d="M212.023,26.849a15.223,15.223,0,0,0-1.752-1.167,11.636,11.636,0,0,0-1.941-.941,29.442,29.442,0,0,0,2.128-2.465q1.164-1.486,2.27-3.161t2.026-3.274a27.042,27.042,0,0,0,1.436-2.8l4.093,1.543a31.635,31.635,0,0,1-1.591,3.049q-.971,1.657-2.1,3.368t-2.321,3.237a32.814,32.814,0,0,1-2.249,2.616M223.7,33.624a5.192,5.192,0,0,1-3.258-.734,2.5,2.5,0,0,1-.544-2.465l3.537-20.06H228.1L224.97,28.129a.909.909,0,0,0,.151.847,1.743,1.743,0,0,0,1.124.245h4.78a2.721,2.721,0,0,0,2.3-.979,11.009,11.009,0,0,0,1.454-3.651q.478.264,1.214.583t1.534.583q.8.264,1.414.414a23.535,23.535,0,0,1-1.955,4.686,5.258,5.258,0,0,1-2.229,2.183,7.746,7.746,0,0,1-3.227.583Zm9.828-23.937a23.855,23.855,0,0,0-2.567-2.2q-1.478-1.109-3-2.089a24.4,24.4,0,0,0-2.807-1.581L228.043.24a29.354,29.354,0,0,1,3.073,1.675q1.681,1.036,3.22,2.126a21.486,21.486,0,0,1,2.471,1.995q-.494.452-1.163,1.148t-1.238,1.374a14.181,14.181,0,0,0-.877,1.129m7.565,14.942a27.406,27.406,0,0,0-6.263-10.162l3.766-2.785a22.745,22.745,0,0,1,2.606,2.936,37.906,37.906,0,0,1,2.474,3.688,27.32,27.32,0,0,1,1.785,3.539,10.017,10.017,0,0,0-1.454.771q-.886.546-1.7,1.11t-1.214.9" transform="translate(-12.309 -0.014)" fill="#fff"/><path d="M266.81,32.989a15.182,15.182,0,0,1-4.767-.6,3.643,3.643,0,0,1-2.351-2.032,7.064,7.064,0,0,1-.165-3.877L263.914,1.6l4.878.3q-.188.641-.529,2.145t-.684,3.237q-.282,1.393-.593,3.049t-.663,3.651l-2.044,11.592q-.292,1.656.524,2.258a5.615,5.615,0,0,0,3.112.6,19.568,19.568,0,0,0,7.226-1.393,26.981,26.981,0,0,0,6.313-3.463q-.089.716-.132,1.712t-.031,1.882c.009.589.023,1.048.04,1.374a29.738,29.738,0,0,1-6.869,3.2,24.582,24.582,0,0,1-7.652,1.242" transform="translate(-15.324 -0.095)" fill="#fff"/><path d="M318.67,33.342a14.426,14.426,0,0,1-6.524-2.277,10.227,10.227,0,0,1-3.862-4.78,12.2,12.2,0,0,1-.509-6.718,15.02,15.02,0,0,1,2.289-5.514,19.176,19.176,0,0,1,4.756-4.987q-3.1.49-6.167,1.035t-5.583,1.035q-2.515.49-3.9.866l-.153-4.893q1.255-.075,3.5-.339t5.085-.659q2.835-.4,5.873-.866t5.89-.96q2.852-.49,5.136-.96T328.1,2.48l.394,4.592q-.57.038-1.441.169t-1.988.282a13.256,13.256,0,0,0-4.159,1.28,16.549,16.549,0,0,0-3.848,2.616,15.824,15.824,0,0,0-3,3.67,13.167,13.167,0,0,0-1.655,4.479,6.855,6.855,0,0,0,.625,4.78,7.488,7.488,0,0,0,3.48,2.992,18.437,18.437,0,0,0,5.447,1.449,11.991,11.991,0,0,0-1.347,1.449,17.508,17.508,0,0,0-1.2,1.694,8.453,8.453,0,0,0-.738,1.411" transform="translate(-17.668 -0.147)" fill="#fff"/><path d="M337.3,34.553l3.464-19.646q-.584.754-1.137,1.43t-1.059,1.2a9.822,9.822,0,0,0-.619-.979q-.421-.6-.9-1.2a4.6,4.6,0,0,0-.845-.866,27.02,27.02,0,0,0,2.687-3.18q1.363-1.863,2.594-3.933T343.68,3.39A31.761,31.761,0,0,0,345.155.04l3.83.9q-.521,1.242-1.246,2.691T346.1,6.626l-4.924,27.926Zm18.862.6q-.548-.528-1.356-1.167a4.923,4.923,0,0,0-1.522-.866q.562-.415,1.09-.847c.353-.289.679-.583.984-.884q-1.853.264-4.177.527t-4.482.452q-2.161.188-3.648.3l.065-3.35q.915-.075,2.554-.188t3.509-.263l.319-1.807H344.3l.537-3.049h5.194l.259-1.468H344.8l2.017-11.442h5.494l.253-1.43h-5.8l.531-3.011h5.8l.273-1.543q-1.306.15-2.508.245t-2.194.169a13.039,13.039,0,0,0-.024-1.675,9.11,9.11,0,0,0-.226-1.6q1.218-.075,3-.245t3.747-.433q1.966-.264,3.64-.583a19.028,19.028,0,0,0,2.638-.659l1.243,3.2a39.837,39.837,0,0,1-5.807,1.129l-.352,1.995H362.2l-.457,2.6h1.882L365.194.379h3.688l-1.566,8.882h5.193l-1.088,6.171q-.83,4.706-1.595,8.187t-1.385,5.514a10.274,10.274,0,0,1-1.514,3.35,3.925,3.925,0,0,1-2.077,1.43,11.582,11.582,0,0,1-3.034.339h-1.582a11.76,11.76,0,0,0,.055-1.694,11,11,0,0,0-.165-1.731,33.276,33.276,0,0,1-3.962,4.328M348.758,19.95h1.995l.325-1.844h-1.995Zm.776-4.4h1.995l.326-1.844H349.86Zm3.125,13.022,2.966-.282q1.4-.131,2.245-.245l-.093.527a22.5,22.5,0,0,0,2.893-5.74,51.993,51.993,0,0,0,1.969-7.96l.338-1.919h-2.145l-1.692,9.6h-5.42l-.259,1.468h4.929l-.537,3.049h-4.931Zm1.52-8.619h1.957l.325-1.844H354.5Zm.776-4.4h1.957l.325-1.844h-1.957Zm.783-4.441h5.194l.252-1.43H355.99Zm4.629,19.42h1.769a2.894,2.894,0,0,0,1.849-.452,5.019,5.019,0,0,0,1.08-2.07q.477-1.43,1.214-4.535t1.605-8.036l.438-2.483h-1.656l-.339,1.919a50.694,50.694,0,0,1-2.286,8.807,27.764,27.764,0,0,1-3.673,6.85" transform="translate(-19.865 -0.002)" fill="#fff"/><path d="M381.858,28.635q.007-1.317.167-3.293t.466-4.347q.3-2.371.711-4.893t.845-4.893q.435-2.371.894-4.328t.872-3.237l4.448.6a30.593,30.593,0,0,0-1.118,3.782q-.567,2.353-1.076,5.137t-.9,5.551q-.394,2.766-.595,5.081a25.4,25.4,0,0,0-.107,3.707Zm10.767,5.533a20.138,20.138,0,0,0-1.145-1.938,6.345,6.345,0,0,0-1.505-1.6,20.7,20.7,0,0,0,5.242-3.049,13.874,13.874,0,0,0,3.528-4.422,22.767,22.767,0,0,0,2.047-6.492l.512-2.9q-2.519.189-4.706.32t-3.279.132l.195-4.516q1.342.076,3.666.02t4.874-.208l1.36-7.715h4.441l-1.294,7.339q1.914-.188,3.524-.452t2.6-.527l-.8,4.554q-.893.151-2.507.339t-3.566.376l-.571,3.237a25.878,25.878,0,0,1-4.12,10.67,21.874,21.874,0,0,1-8.488,6.831" transform="translate(-22.562 -0.106)" fill="#fff"/><path d="M436.813,33.034q-4.518,0-6.361-1.712a4.368,4.368,0,0,1-1.4-4.2,5.539,5.539,0,0,1,1.274-2.747,6.843,6.843,0,0,1,2.38-1.75,6.926,6.926,0,0,1,2.857-.621,5.086,5.086,0,0,1,4.193,1.731,6.755,6.755,0,0,1,1.444,4.291,7,7,0,0,0,2.622-1.957,6.549,6.549,0,0,0,1.442-3.161A4.884,4.884,0,0,0,445,20.087a4.18,4.18,0,0,0-1.778-1.976,5.912,5.912,0,0,0-3.051-.735,15.419,15.419,0,0,0-4.491.6,11.854,11.854,0,0,0-3.706,1.92q-.783.6-2.06,1.543t-2.387,1.694l-2.5-3.313a39.684,39.684,0,0,0,4.052-2.483q2.185-1.506,4.467-3.35t4.4-3.82q2.117-1.976,3.849-3.9-1.686.378-3.645.716t-3.751.564q-1.791.226-3.008.3l-.071-4.291a19.373,19.373,0,0,0,2.544-.019q1.54-.093,3.339-.263t3.52-.433q1.722-.264,3.108-.546a11.194,11.194,0,0,0,2.078-.583L448.9,3.978a39.134,39.134,0,0,1-4.451,5.288q-2.728,2.766-5.739,5.326a8.176,8.176,0,0,1,3.086-.64,9.909,9.909,0,0,1,4.958,1.129,6.516,6.516,0,0,1,2.852,3.143,8.1,8.1,0,0,1,.4,4.686,11.307,11.307,0,0,1-2.314,5.119,13.012,13.012,0,0,1-4.614,3.65,14.171,14.171,0,0,1-6.261,1.356m.24-4.14a3.941,3.941,0,0,0-.479-2.3,1.838,1.838,0,0,0-1.674-.866,1.935,1.935,0,0,0-1.069.3,1.288,1.288,0,0,0-.573.9,1.262,1.262,0,0,0,.614,1.318,5.434,5.434,0,0,0,2.735.6.654.654,0,0,0,.22.039Z" transform="translate(-25.113 -0.102)" fill="#fff"/></g></g><g transform="translate(498.026 509.754)"><path d="M9.484,0H422.975a9.484,9.484,0,0,1,9.484,9.484V56.9a9.484,9.484,0,0,1-9.484,9.484H9.484A9.484,9.484,0,0,1,0,56.9V9.484A9.484,9.484,0,0,1,9.484,0Z" fill="#00561f"/><g transform="translate(20.864 15.174)"><path d="M19.89,35.6a10.161,10.161,0,0,0-.791-1.487,5.714,5.714,0,0,0-1.05-1.3q.579-.3,1.125-.621t1.094-.659H12.477L14.635,19.3H25.21l-1.772,10.05q.872-.677,1.717-1.412t1.616-1.487a37.4,37.4,0,0,1-.02-4.046q.1-2.164.356-4.686H13.521l.6-3.425h2.71q-.1-.94-.313-2.277t-.464-2.277l3.317-1.091a18.48,18.48,0,0,1,.516,2.409q.23,1.468.309,2.522l-2.5.715H20.71q.478-.79,1.085-1.881t1.132-2.146q.524-1.053.78-1.656H15.692l.438-2.484h-1.2L9.769,35.369H6.38l1.274-7.226q-1.074.339-2.413.772T2.6,29.724q-1.308.377-2.289.6L0,26.525q.426-.075,1.033-.206c.4-.088.816-.183,1.235-.282L5.779,6.126H4.009l.631-3.575H17.324l-.471,2.671h3.312l.7-3.952h3.989l-.7,3.952h3.914l-.6,3.387H23.859l3.108.942q-.46.9-1.206,2.257t-1.474,2.484h3.238q.36-2.9.9-6.154t1.2-7.018h3.8q-.27,1.317-.537,2.728T32.4,6.69L35.5,5.147a20.7,20.7,0,0,1,1.178,2.71,25.74,25.74,0,0,1,.876,2.936,11.691,11.691,0,0,0-1.707.715q-1.073.528-1.785.941-.251-1.129-.731-2.578A23.354,23.354,0,0,0,32.3,7.256q-.3,1.73-.56,3.5t-.492,3.538h5.871l-.6,3.425H30.871q-.131,1.167-.188,2.24t-.093,2.126q.6-.827,1.136-1.637a14.8,14.8,0,0,0,.948-1.637l3.07,1.582a38.83,38.83,0,0,1-2.329,3.386q-1.272,1.657-2.671,3.2.141.9.292,1.656a7.457,7.457,0,0,0,.413,1.393,16.329,16.329,0,0,0,.807-1.807q.354-.94.658-1.807a8.933,8.933,0,0,0,.995.547q.59.282,1.171.507a8.634,8.634,0,0,0,.868.3q-.354.941-.895,2.089t-1.123,2.2A17.019,17.019,0,0,1,32.8,33.864,2.747,2.747,0,0,1,30.5,35.313a2.327,2.327,0,0,1-1.977-1.487q-.35-.79-.671-1.637a13.01,13.01,0,0,1-.532-1.788A36.944,36.944,0,0,1,19.89,35.6M5.8,25.245q.673-.188,1.3-.339t1.182-.3l.6-3.387H6.505Zm1.341-7.6h2.37l.71-4.028H7.846ZM8.483,10h2.37l.683-3.877H9.166Zm8.194,18.63h3.2l.352-1.995h-3.2Zm.8-4.516h3.2l.339-1.919h-3.2Z" transform="translate(0 -0.066)" fill="#fff"/><path d="M59.543,35.537a6.774,6.774,0,0,0-.74-.715q-.525-.452-1.09-.866a4.393,4.393,0,0,0-.955-.565,19.382,19.382,0,0,0,4.033-2.484,35.079,35.079,0,0,0,3.876-3.52,22.7,22.7,0,0,0,2.854-3.594H65.9a31.8,31.8,0,0,1-3.668,4.046,35.688,35.688,0,0,1-4.555,3.633,25.287,25.287,0,0,1-4.8,2.558,5.814,5.814,0,0,0-.562-.866q-.4-.526-.836-1.016a3.29,3.29,0,0,0-.785-.677,24.034,24.034,0,0,0,3.866-1.863,34.65,34.65,0,0,0,4.045-2.766,22.965,22.965,0,0,0,3.227-3.05H60.07a35.558,35.558,0,0,1-3.591,2.974,24.213,24.213,0,0,1-3.686,2.221,6.754,6.754,0,0,0-1.028-1.317A7.8,7.8,0,0,0,50.446,26.5a23.49,23.49,0,0,0,3.526-1.957,29.731,29.731,0,0,0,3.422-2.653,20.7,20.7,0,0,0,2.69-2.88H56.546l-.669,3.8q-.991.488-2.631,1.147T49.755,25.3q-1.85.677-3.606,1.241t-3.02.9l-.342-4.253Q43.8,23,45.038,22.7t2.586-.678l1.659-9.408H45.1l.684-3.878h4.178L51.259,1.4h4.366L54.331,8.739h3.877l-.684,3.878H53.647l-1.4,7.941,2.21-.79a19.155,19.155,0,0,0,1.825-.754h-.6l.564-3.2H78.827l-.564,3.2H64.225c-.17.251-.355.516-.554.79s-.411.553-.634.828H77.113q-.193,1.094-.54,2.636t-.812,3.218q-.464,1.674-.972,3.161a15.008,15.008,0,0,1-1.056,2.465,5.915,5.915,0,0,1-2.21,2.5,6.739,6.739,0,0,1-3.285.7H65.6a13.964,13.964,0,0,0,.021-2.032,6.947,6.947,0,0,0-.315-1.844,32.946,32.946,0,0,1-2.861,2.353,18,18,0,0,1-2.9,1.75m-.11-21.153L61.656,1.777H77.989L75.767,14.385Zm4.677-3.049h8.055l.318-1.806H64.428Zm.8-4.554h8.054l.312-1.768H65.225Zm.49,24.539h2.635a3.1,3.1,0,0,0,1.361-.245A2.419,2.419,0,0,0,70.341,30a12.944,12.944,0,0,0,.823-1.789q.446-1.146.813-2.37t.55-2.052H71.4a29.686,29.686,0,0,1-2.66,3.878,37.77,37.77,0,0,1-3.335,3.65" transform="translate(-2.528 -0.083)" fill="#fff"/><path d="M98.334,30.646a7.734,7.734,0,0,0-.267-1.581,12.326,12.326,0,0,0-.61-1.769,6.98,6.98,0,0,0-.771-1.393,49.01,49.01,0,0,0,8.8-1.374,17.2,17.2,0,0,0,6.007-2.69,6.135,6.135,0,0,0,2.563-4.179q.71-5.307-6.953-4.968a28.123,28.123,0,0,0-2.91.282q-1.737.246-3.778.621t-4.108.884q-2.066.508-3.912,1.054t-3.144,1.073c0-.024-.051-.282-.165-.771s-.247-1.055-.4-1.695-.284-1.2-.4-1.694a6.626,6.626,0,0,0-.2-.772q1.207-.226,3.12-.621t4.2-.847q2.279-.452,4.57-.847t4.316-.677a31.764,31.764,0,0,1,3.426-.32,16.172,16.172,0,0,1,6.932.922A6.839,6.839,0,0,1,118.3,12.5a8.442,8.442,0,0,1,.648,4.968,11.139,11.139,0,0,1-2.119,5.288,14.383,14.383,0,0,1-4.434,3.8,27.851,27.851,0,0,1-6.3,2.56,53.631,53.631,0,0,1-7.759,1.523m19.84-21.378a13.092,13.092,0,0,0-1.588-2.409A17.732,17.732,0,0,0,114.7,4.827L117,3.1a17.069,17.069,0,0,1,1.188,1.261q.706.81,1.362,1.675a14.454,14.454,0,0,1,1,1.468Zm3.8-2.973a14.179,14.179,0,0,0-1.631-2.39,18.419,18.419,0,0,0-1.884-2.014L120.721.16a9.539,9.539,0,0,1,1.234,1.223q.7.81,1.383,1.656a12.049,12.049,0,0,1,1.024,1.449Z" transform="translate(-5.205 -0.009)" fill="#fff"/><path d="M146.666,35.383a23.461,23.461,0,0,0-1.272-3.143q-.838-1.75-1.884-3.612T141.347,25q-1.121-1.768-2.13-3.179a25.073,25.073,0,0,0-1.769-2.24,2.8,2.8,0,0,1-.892-2.2,3.588,3.588,0,0,1,1.6-2.014q1.085-.827,2.591-2.108t3.171-2.823q1.661-1.543,3.285-3.161t2.964-3.144a26.067,26.067,0,0,0,2.162-2.766l3.78,2.9q-1.027,1.129-2.768,2.785t-3.693,3.445q-1.953,1.787-3.778,3.386t-3.1,2.653a1.191,1.191,0,0,0-.25,1.844q.682.828,1.663,2.2t2.06,3.049q1.078,1.675,2.135,3.368t1.886,3.18q.828,1.488,1.3,2.465a13.508,13.508,0,0,0-1.594.715q-.953.488-1.857,1.035a11.2,11.2,0,0,0-1.437,1" transform="translate(-8.067 -0.08)" fill="#fff"/><path d="M182.145,35.188a9.488,9.488,0,0,0-1.156-1.976,9.3,9.3,0,0,0-1.581-1.712,21.551,21.551,0,0,0,9.036-6.1A20.2,20.2,0,0,0,193,15.467q.629-3.575-.382-4.987a3,3,0,0,0-2.8-1.3,4.517,4.517,0,0,0-2.873,1.562,11.952,11.952,0,0,0-2.5,4.272,21.943,21.943,0,0,0-1.182,6.812q-.534.038-1.408.188c-.581.1-1.142.214-1.678.339a10.741,10.741,0,0,0-1.207.339,32.872,32.872,0,0,1,.184-3.5q.2-2.107.539-4.554t.75-4.893q.411-2.446.852-4.516t.816-3.35l4.519.414q-.349.9-.766,2.315T185.053,7.6q-.392,1.581-.689,3.049a12.994,12.994,0,0,1,3.2-3.933,6.351,6.351,0,0,1,7.821-.489,6.088,6.088,0,0,1,2.25,3.463,13.258,13.258,0,0,1,.036,5.777,24.955,24.955,0,0,1-5.3,12.025,29.879,29.879,0,0,1-10.22,7.7" transform="translate(-10.574 -0.111)" fill="#fff"/><path d="M229.423,34.57a22.379,22.379,0,0,1-5.464-.6,6.932,6.932,0,0,1-3.573-1.938,3.969,3.969,0,0,1-.809-3.519,6.51,6.51,0,0,1,1.671-3.292,14.25,14.25,0,0,1,3.489-2.711,34.851,34.851,0,0,1,4.762-2.239l.053-.3a2.258,2.258,0,0,0-.317-1.938,2.2,2.2,0,0,0-1.552-.7,8.38,8.38,0,0,0-3.4.489A11.259,11.259,0,0,0,220.776,20q-.532.452-1.37,1.148t-1.672,1.374q-.834.677-1.441,1.129l-2.7-3.237a32.312,32.312,0,0,0,5.739-4.366,39.077,39.077,0,0,0,4.941-5.608q-2.123.076-3.862.132t-2.6.02l.612-4.329q1.259.113,3.537.113t4.969-.113a19.416,19.416,0,0,0,1.8-4.667l4.439.226a20.589,20.589,0,0,1-1.483,4.14q2.824-.226,5.265-.508a25.9,25.9,0,0,0,3.786-.659l-.474,4.178q-1.088.189-2.817.4t-3.814.4q-2.085.189-4.256.339-.677,1.054-1.486,2.126t-1.661,2.051a9,9,0,0,1,3.156-.6,5.145,5.145,0,0,1,3.538,1.167,4.666,4.666,0,0,1,1.224,3.84q2.234-.716,4.539-1.3t4.461-1.073l.55,4.14q-2.7.377-5.281.921T233.565,22.6l-.883,5.006h-4.441l.584-3.311a17.6,17.6,0,0,0-3.34,1.863,3.261,3.261,0,0,0-1.451,1.824q-.226,1.28,1.228,1.788a15.187,15.187,0,0,0,4.615.508,28.474,28.474,0,0,0,2.909-.169q1.629-.169,3.278-.452t2.914-.621q-.162.49-.382,1.411t-.377,1.825q-.159.9-.2,1.355a34.463,34.463,0,0,1-4.263.7,41.928,41.928,0,0,1-4.333.245" transform="translate(-12.62 -0.095)" fill="#fff"/><path d="M270.417,33.308a9.483,9.483,0,0,0-1.641-4.14,16.321,16.321,0,0,0,8.644-2.6,9.315,9.315,0,0,0,3.936-6.211,5.564,5.564,0,0,0-.7-4.139,6.225,6.225,0,0,0-3.476-2.484,62,62,0,0,1-6.043,8.017,12.011,12.011,0,0,0,1.943,1.354,9.75,9.75,0,0,0-1.787,1.6,17.215,17.215,0,0,0-1.5,1.863q-.511-.3-1.012-.659t-.993-.772a25.536,25.536,0,0,1-5.364,3.951,8.443,8.443,0,0,1-4.143,1.186,3.116,3.116,0,0,1-2.689-1.393,5.507,5.507,0,0,1-.41-3.971,14.683,14.683,0,0,1,2.15-5.363,21.744,21.744,0,0,1,4.024-4.686,42.7,42.7,0,0,1-1.273-4.2,37.651,37.651,0,0,1-.762-3.9l4.23-1.581A16.616,16.616,0,0,0,263.9,8.58a25.1,25.1,0,0,0,1.043,3.688,21.5,21.5,0,0,1,4.6-2.051,15.821,15.821,0,0,1,4.7-.734h.828q.951-1.77,1.737-3.557a28.345,28.345,0,0,0,1.259-3.407l4.318,1.13Q281.759,5.269,281,6.906T279.31,10.2a10.3,10.3,0,0,1,4.127,2.315,8.365,8.365,0,0,1,2.237,3.538,8.911,8.911,0,0,1,.237,4.308,14.553,14.553,0,0,1-2.584,6.117,15.561,15.561,0,0,1-5.233,4.5,21.65,21.65,0,0,1-7.676,2.333m-9.328-7.715a17.609,17.609,0,0,0,4.246-3.161,21.634,21.634,0,0,1-1.309-1.976q-.607-1.035-1.174-2.089a14.867,14.867,0,0,0-2.369,3.086,10.4,10.4,0,0,0-1.256,3.386q-.319,1.807,1.862.754m7.446-6.586a66.9,66.9,0,0,0,4.245-5.721,12.3,12.3,0,0,0-3.246.7,15.4,15.4,0,0,0-3.174,1.562,28.443,28.443,0,0,0,2.174,3.463" transform="translate(-15.068 -0.149)" fill="#fff"/><path d="M316.427,34.362a34.627,34.627,0,0,1-6.1-.226,15.7,15.7,0,0,1-4.978-1.429,7.162,7.162,0,0,1-3.132-2.843,6.461,6.461,0,0,1-.555-4.422,7.247,7.247,0,0,1,2.454-4.309,12.009,12.009,0,0,1,4.979-2.522,16.968,16.968,0,0,1,6.367-.358,28.867,28.867,0,0,1-1.288-2.729,21.058,21.058,0,0,1-.954-2.917q-3.514.3-6.932.47t-5.97.132l.212-4.4a52.87,52.87,0,0,0,5.359.132q3.171-.056,6.6-.32a23.225,23.225,0,0,1,.2-6.662h4.479a24.163,24.163,0,0,0-.343,3.124A22.546,22.546,0,0,0,316.9,8.2q2.988-.3,5.568-.734a33.416,33.416,0,0,0,4.17-.922l-.122,4.328q-1.6.339-3.9.659t-4.946.621a19.338,19.338,0,0,0,2.093,4.573,16.849,16.849,0,0,0,3.308,3.858l-3.254,3.086a11.654,11.654,0,0,0-3.191-1.43,13.36,13.36,0,0,0-3.468-.508,11.634,11.634,0,0,0-3.231.4,6.564,6.564,0,0,0-2.5,1.242,3.393,3.393,0,0,0-1.213,2.07,2.556,2.556,0,0,0,1.325,2.842,11.511,11.511,0,0,0,4.7,1.317,42.025,42.025,0,0,0,6.852.094,15.544,15.544,0,0,0-1,1.411q-.572.885-1.028,1.769a9.079,9.079,0,0,0-.639,1.487M328.855,8.92a12.646,12.646,0,0,0-1.315-2.578,16.9,16.9,0,0,0-1.644-2.2L328.313,2.6a13.676,13.676,0,0,1,1.053,1.393q.613.9,1.184,1.825a11.275,11.275,0,0,1,.835,1.562Zm4-2.635A13.809,13.809,0,0,0,331.5,3.726a17.774,17.774,0,0,0-1.648-2.183L332.272,0a14.625,14.625,0,0,1,1.056,1.374q.615.885,1.19,1.788a14.462,14.462,0,0,1,.876,1.543Z" transform="translate(-17.745 0)" fill="#fff"/><path d="M351.863,33.789a15.193,15.193,0,0,1-4.768-.6,3.648,3.648,0,0,1-2.351-2.032,7.076,7.076,0,0,1-.164-3.877L348.967,2.4l4.878.3q-.189.642-.529,2.145t-.684,3.237q-.282,1.393-.594,3.049t-.663,3.652l-2.044,11.592q-.292,1.656.525,2.257a5.61,5.61,0,0,0,3.111.6,19.592,19.592,0,0,0,7.227-1.393,27.02,27.02,0,0,0,6.313-3.464q-.089.716-.133,1.713t-.031,1.881q.014.885.041,1.375a29.755,29.755,0,0,1-6.869,3.2,24.58,24.58,0,0,1-7.652,1.241" transform="translate(-20.349 -0.142)" fill="#fff"/><path d="M403.723,34.142a14.448,14.448,0,0,1-6.525-2.276,10.24,10.24,0,0,1-3.862-4.781,12.2,12.2,0,0,1-.508-6.718,15,15,0,0,1,2.288-5.514,19.179,19.179,0,0,1,4.757-4.987q-3.1.49-6.168,1.035t-5.583,1.035q-2.516.49-3.9.866l-.152-4.893q1.255-.075,3.5-.339t5.084-.658q2.836-.4,5.873-.866t5.891-.961q2.852-.488,5.136-.96t3.593-.847l.4,4.592c-.381.025-.863.082-1.442.169s-1.243.183-1.988.282a13.25,13.25,0,0,0-4.158,1.28,16.529,16.529,0,0,0-3.848,2.616,15.8,15.8,0,0,0-3,3.67,13.19,13.19,0,0,0-1.656,4.479,6.855,6.855,0,0,0,.625,4.78,7.5,7.5,0,0,0,3.48,2.992,18.417,18.417,0,0,0,5.447,1.449,12.067,12.067,0,0,0-1.346,1.449,17.415,17.415,0,0,0-1.2,1.694,8.44,8.44,0,0,0-.738,1.411" transform="translate(-22.693 -0.194)" fill="#fff"/></g></g></g></svg>